<svg width="1080" height="664" viewBox="0 0 1080 664" fill="none" xmlns="http://www.w3.org/2000/svg">
<path d="M177.906 269.661L174.042 265.812C170.677 269.193 167.557 272.859 164.771 276.714L169.188 279.911C171.807 276.292 174.745 272.839 177.906 269.661Z" fill="white"/>
<path d="M153.943 316.932L148.552 316.099C147.839 320.724 147.474 325.458 147.474 330.177V330.359L152.932 330.177C152.932 325.74 153.276 321.281 153.943 316.932Z" fill="white"/>
<path d="M162.172 291.401L157.307 288.932C155.151 293.187 153.318 297.641 151.854 302.172L157.047 303.849C158.422 299.589 160.146 295.401 162.172 291.401Z" fill="white"/>
<path d="M174.287 394.792C177.667 398.162 181.333 401.287 185.177 404.078L188.38 399.667C184.761 397.042 181.318 394.104 178.136 390.932L174.287 394.792Z" fill="white"/>
<path d="M199.552 253.818L197.057 248.974C192.828 251.151 188.729 253.677 184.885 256.49L188.109 260.891C191.724 258.245 195.573 255.87 199.552 253.818Z" fill="white"/>
<path d="M148.615 344.63C149.365 349.339 150.495 354.021 151.974 358.542L157.156 356.849C155.766 352.599 154.703 348.198 154 343.776L148.615 344.63Z" fill="white"/>
<path d="M157.474 371.755C159.641 375.99 162.167 380.094 164.974 383.932L169.38 380.719C166.74 377.099 164.365 373.25 162.323 369.271L157.474 371.755Z" fill="white"/>
<mask id="mask0_140305_6" style="mask-type:luminance" maskUnits="userSpaceOnUse" x="0" y="2" width="1080" height="660">
<path d="M0 2.66663H1080V661.599H0V2.66663Z" fill="white"/>
</mask>
<g mask="url(#mask0_140305_6)">
<path d="M542.614 2.73438H-0.0209961V661.464H1080.02V2.73438H542.614ZM5.43734 82.5625H84.5103C207.698 82.5625 309.489 175.911 322.943 295.604C321.943 293.198 320.823 290.854 319.62 288.552L319.838 288.443C317.667 284.214 315.13 280.12 312.318 276.276L312.062 276.464C309.219 272.635 306.094 269.047 302.698 265.714L291.792 256.563C287.943 253.802 283.87 251.339 279.609 249.203L266.432 243.839C261.953 242.417 257.333 241.333 252.588 240.62L238.463 239.609H5.43734V82.5625ZM323.469 343.604C322.776 348.094 321.719 352.464 320.354 356.698L320.302 356.677C318.922 360.938 317.193 365.12 315.151 369.109L315.208 369.141C313.161 373.167 310.807 377.005 308.177 380.635L308.114 380.589C305.479 384.208 302.542 387.651 299.375 390.823L299.448 390.891C296.265 394.068 292.833 396.984 289.198 399.63L289.151 399.568C285.526 402.208 281.677 404.578 277.698 406.62L277.729 406.672C273.75 408.698 269.594 410.432 265.297 411.828L265.276 411.776C261.026 413.161 256.625 414.219 252.203 414.917L252.208 414.958C248.792 415.484 245.302 415.792 241.765 415.906V245.13C287.547 246.578 324.354 284.198 324.463 330.313C324.463 332.495 324.38 334.682 324.208 336.854L324.198 336.984C324.026 339.208 323.766 341.411 323.427 343.599L323.469 343.604ZM5.43734 245.063H210.792L211.958 248.635C216.208 247.24 220.609 246.177 225.031 245.469L224.969 245.063H236.307V415.88C232.635 415.781 228.969 415.505 225.37 414.943L225.213 415.979H210.948L212.292 411.833C208.031 410.453 203.849 408.724 199.854 406.693L197.38 411.552C200.729 413.26 204.224 414.693 207.76 415.979H5.43734V245.063ZM5.43734 421.432H239.036C276.687 421.432 309.062 398.411 322.833 365.698C308.969 484.948 207.385 577.818 84.5103 577.818H5.43734V421.432ZM537.161 656.01H5.43734V583.271H84.5103C219.828 583.271 329.922 473.146 329.922 337.786V322.599C329.922 187.234 219.828 77.1094 84.5103 77.1094H5.43734V8.19271H537.161V176.693C452.713 178.161 384.463 247.286 384.463 332.099C384.463 416.911 452.713 486.042 537.161 487.51V656.01ZM390.141 332.099C390.141 250.37 455.823 183.74 537.161 182.156V482.047C455.823 480.458 390.141 413.833 390.141 332.099ZM689.865 332.099C689.865 413.833 624.177 480.458 542.838 482.047V182.156C624.177 183.74 689.865 250.37 689.865 332.099ZM1074.57 577.818H995.49C872.615 577.818 771.031 484.948 757.167 365.698C770.937 398.411 803.312 421.432 840.963 421.432H1074.57V577.818ZM755.802 336.984L755.792 336.854C755.62 334.682 755.536 332.495 755.536 330.313C755.646 284.198 792.453 246.578 838.234 245.13V415.906C834.698 415.792 831.208 415.484 827.792 414.958L827.797 414.917C823.37 414.219 818.974 413.161 814.724 411.776L814.703 411.828C810.406 410.432 806.255 408.698 802.271 406.672L802.302 406.62C798.323 404.578 794.469 402.208 790.849 399.568L790.802 399.63C787.167 396.984 783.734 394.068 780.552 390.891L780.625 390.823C777.458 387.651 774.521 384.208 771.885 380.589L771.823 380.635C769.193 377.005 766.838 373.167 764.792 369.141L764.849 369.109C762.807 365.12 761.078 360.938 759.698 356.677L759.646 356.698C758.281 352.464 757.224 348.094 756.531 343.604L756.573 343.599C756.234 341.411 755.974 339.208 755.802 336.984ZM1074.57 415.979H872.24C875.776 414.693 879.271 413.26 882.62 411.552L880.146 406.693C876.151 408.724 871.969 410.453 867.713 411.833L869.052 415.979H854.786L854.625 414.943C851.031 415.505 847.359 415.781 843.687 415.88V245.063H855.031L854.969 245.469C859.391 246.177 863.792 247.24 868.042 248.635L869.208 245.063H1074.57V415.979ZM1074.57 239.609H841.536L827.411 240.62C822.667 241.333 818.047 242.417 813.568 243.839L800.391 249.203C796.13 251.339 792.057 253.802 788.208 256.563L777.302 265.714C773.911 269.047 770.781 272.635 767.937 276.464L760.38 288.552C759.177 290.854 758.057 293.198 757.057 295.604C770.51 175.911 872.302 82.5625 995.49 82.5625H1074.57V239.609ZM1074.57 77.1094H995.49C860.172 77.1094 750.078 187.234 750.078 322.599V337.786C750.078 473.146 860.172 583.271 995.49 583.271H1074.57V656.01H542.838V487.51C627.286 486.042 695.536 416.911 695.536 332.099C695.536 247.286 627.286 178.161 542.838 176.693V8.19271H1074.57V77.1094Z" fill="white"/>
</g>
<path d="M915.229 276.714C912.443 272.859 909.323 269.193 905.964 265.812L902.094 269.661C905.255 272.839 908.188 276.292 910.813 279.911L915.229 276.714Z" fill="white"/>
<path d="M927.073 330.177L932.526 330.359V330.177C932.526 325.458 932.161 320.724 931.448 316.099L926.057 316.932C926.729 321.281 927.073 325.74 927.073 330.177Z" fill="white"/>
<path d="M928.146 302.172C926.682 297.641 924.849 293.187 922.693 288.932L917.828 291.401C919.859 295.401 921.578 299.589 922.953 303.849L928.146 302.172Z" fill="white"/>
<path d="M894.823 404.078C898.667 401.287 902.333 398.162 905.713 394.792L901.864 390.932C898.682 394.104 895.239 397.042 891.62 399.667L894.823 404.078Z" fill="white"/>
<path d="M895.114 256.49C891.271 253.677 887.177 251.151 882.943 248.974L880.448 253.818C884.432 255.87 888.276 258.245 891.89 260.891L895.114 256.49Z" fill="white"/>
<path d="M922.844 356.849L928.026 358.542C929.505 354.021 930.635 349.339 931.385 344.63L926 343.776C925.297 348.198 924.234 352.599 922.844 356.849Z" fill="white"/>
<path d="M915.026 383.932C917.833 380.094 920.359 375.99 922.526 371.755L917.677 369.271C915.635 373.25 913.26 377.099 910.62 380.719L915.026 383.932Z" fill="white"/>
</svg>
